<?xml version="1.0" encoding="UTF-8" standalone="no"?>
<!-- Created with Inkscape (http://www.inkscape.org/) -->

<svg
   xmlns:dc="http://purl.org/dc/elements/1.1/"
   xmlns:cc="http://creativecommons.org/ns#"
   xmlns:rdf="http://www.w3.org/1999/02/22-rdf-syntax-ns#"
   xmlns:svg="http://www.w3.org/2000/svg"
   xmlns="http://www.w3.org/2000/svg"
   xmlns:sodipodi="http://sodipodi.sourceforge.net/DTD/sodipodi-0.dtd"
   xmlns:inkscape="http://www.inkscape.org/namespaces/inkscape"
   id="svg3775"
   version="1.1"
   inkscape:version="0.91 r13725"
   xml:space="preserve"
   width="250.51434"
   height="91.125"
   viewBox="0 0 250.51434 91.125"
   sodipodi:docname="profile_hmm.svg"><metadata
     id="metadata3781"><rdf:RDF><cc:Work
         rdf:about=""><dc:format>image/svg+xml</dc:format><dc:type
           rdf:resource="http://purl.org/dc/dcmitype/StillImage" /><dc:title></dc:title></cc:Work></rdf:RDF></metadata><defs
     id="defs3779" /><sodipodi:namedview
     pagecolor="#ffffff"
     bordercolor="#666666"
     borderopacity="1"
     objecttolerance="10"
     gridtolerance="10"
     guidetolerance="10"
     inkscape:pageopacity="0"
     inkscape:pageshadow="2"
     inkscape:window-width="1920"
     inkscape:window-height="1056"
     id="namedview3777"
     showgrid="false"
     inkscape:zoom="2.9379555"
     inkscape:cx="207.07486"
     inkscape:cy="17.006169"
     inkscape:window-x="1366"
     inkscape:window-y="24"
     inkscape:window-maximized="1"
     inkscape:current-layer="g3783" /><g
     id="g3783"
     inkscape:groupmode="layer"
     inkscape:label="profile_hmm"
     transform="matrix(1.25,0,0,-1.25,0,91.125002)"><g
       transform="matrix(1,0,0,-1,0,72.900002)"
       id="g3787"><path
         inkscape:connector-curvature="0"
         id="path3789"
         style="fill:none;stroke:#000000;stroke-width:0.63999999;stroke-linecap:butt;stroke-linejoin:miter;stroke-miterlimit:4.00344801;stroke-dasharray:none;stroke-opacity:1"
         d="m 36.207,40.664 16,0" /></g><path
       inkscape:connector-curvature="0"
       id="path3791"
       style="fill:#000000;fill-opacity:1;fill-rule:evenodd;stroke:none"
       d="m 45.363,35.076 7.692,-2.828 -7.692,-2.828 c 1.231,1.668 1.223,3.953 0,5.656 z" /><g
       transform="matrix(1,0,0,-1,0,72.900002)"
       id="g3793"><path
         inkscape:connector-curvature="0"
         id="path3795"
         style="fill:none;stroke:#000000;stroke-width:0.63999999;stroke-linecap:butt;stroke-linejoin:miter;stroke-miterlimit:4.00344801;stroke-dasharray:none;stroke-opacity:1"
         d="M 33.051,35.383 41.359,19.949" /></g><path
       inkscape:connector-curvature="0"
       id="path3797"
       style="fill:#000000;fill-opacity:1;fill-rule:evenodd;stroke:none"
       d="m 35.617,48.275 6.137,5.43 -1.156,-8.114 c -0.887,1.875 -2.903,2.95 -4.981,2.684 z" /><g
       transform="matrix(1,0,0,-1,0,72.900002)"
       id="g3799"><path
         inkscape:connector-curvature="0"
         id="path3801"
         style="fill:none;stroke:#000000;stroke-width:0.63999999;stroke-linecap:butt;stroke-linejoin:miter;stroke-miterlimit:4.00344801;stroke-dasharray:none;stroke-opacity:1"
         d="m 64.207,40.664 16,0" /></g><path
       inkscape:connector-curvature="0"
       id="path3803"
       style="fill:#000000;fill-opacity:1;fill-rule:evenodd;stroke:none"
       d="m 73.363,35.076 7.692,-2.828 -7.692,-2.828 c 1.231,1.668 1.223,3.953 0,5.656 z" /><g
       transform="matrix(1,0,0,-1,0,72.900002)"
       id="g3805"><path
         inkscape:connector-curvature="0"
         id="path3807"
         style="fill:none;stroke:#000000;stroke-width:0.63999999;stroke-linecap:butt;stroke-linejoin:miter;stroke-miterlimit:4.00344801;stroke-dasharray:none;stroke-opacity:1"
         d="M 61.051,35.383 69.359,19.949" /></g><path
       inkscape:connector-curvature="0"
       id="path3809"
       style="fill:#000000;fill-opacity:1;fill-rule:evenodd;stroke:none"
       d="m 63.617,48.275 6.137,5.43 -1.156,-8.114 c -0.887,1.875 -2.903,2.95 -4.981,2.684 z" /><g
       transform="matrix(1,0,0,-1,0,72.900002)"
       id="g3811"><path
         inkscape:connector-curvature="0"
         id="path3813"
         style="fill:none;stroke:#000000;stroke-width:0.63999999;stroke-linecap:butt;stroke-linejoin:miter;stroke-miterlimit:4.00344801;stroke-dasharray:none;stroke-opacity:1"
         d="m 47.051,19.949 8.308,15.434" /></g><path
       inkscape:connector-curvature="0"
       id="path3815"
       style="fill:#000000;fill-opacity:1;fill-rule:evenodd;stroke:none"
       d="m 54.617,44.888 1.156,-8.113 -6.136,5.434 c 2.051,-0.293 4.062,0.796 4.98,2.679 z" /><g
       transform="matrix(1,0,0,-1,0,72.900002)"
       id="g3817"><path
         inkscape:connector-curvature="0"
         id="path3819"
         style="fill:none;stroke:#000000;stroke-width:0.63999999;stroke-linecap:butt;stroke-linejoin:miter;stroke-miterlimit:4.00344801;stroke-dasharray:none;stroke-opacity:1"
         d="M 47.051,61.383 55.359,45.949" /></g><path
       inkscape:connector-curvature="0"
       id="path3821"
       style="fill:#000000;fill-opacity:1;fill-rule:evenodd;stroke:none"
       d="m 49.617,22.275 6.137,5.43 -1.156,-8.114 c -0.887,1.875 -2.903,2.95 -4.981,2.684 z" /><g
       transform="matrix(1,0,0,-1,0,72.900002)"
       id="g3823"><path
         inkscape:connector-curvature="0"
         id="path3825"
         style="fill:none;stroke:#000000;stroke-width:0.63999999;stroke-linecap:butt;stroke-linejoin:miter;stroke-miterlimit:4.00344801;stroke-dasharray:none;stroke-opacity:1"
         d="m 61.051,45.949 8.308,15.434" /></g><path
       inkscape:connector-curvature="0"
       id="path3827"
       style="fill:#000000;fill-opacity:1;fill-rule:evenodd;stroke:none"
       d="m 68.617,18.888 1.156,-8.113 -6.136,5.434 c 2.051,-0.293 4.062,0.796 4.98,2.679 z" /><g
       transform="matrix(1,0,0,-1,0,72.900002)"
       id="g3829"
       style="fill:#1dff21;fill-opacity:0.65000004"><path
         inkscape:connector-curvature="0"
         id="path3831"
         style="fill:#1dff21;fill-opacity:0.65000004;fill-rule:nonzero;stroke:#000000;stroke-width:0.47999999;stroke-linecap:butt;stroke-linejoin:miter;stroke-miterlimit:4.0999999;stroke-dasharray:none;stroke-opacity:1"
         d="m 64.207,40.664 c 0,3.313 -2.687,6 -6,6 -3.316,0 -6,-2.687 -6,-6 0,-3.312 2.684,-6 6,-6 3.313,0 6,2.688 6,6 z" /></g><g
       transform="matrix(1,0,0,-1,0,72.900002)"
       id="g3833"><path
         inkscape:connector-curvature="0"
         id="path3835"
         style="fill:none;stroke:#000000;stroke-width:0.63999999;stroke-linecap:butt;stroke-linejoin:miter;stroke-miterlimit:4.00344801;stroke-dasharray:none;stroke-opacity:1"
         d="m 103.051,19.949 8.308,15.434" /></g><path
       inkscape:connector-curvature="0"
       id="path3837"
       style="fill:#000000;fill-opacity:1;fill-rule:evenodd;stroke:none"
       d="m 110.617,44.888 1.156,-8.113 -6.136,5.434 c 2.051,-0.293 4.062,0.796 4.98,2.679 z" /><g
       transform="matrix(1,0,0,-1,0,72.900002)"
       id="g3839"><path
         inkscape:connector-curvature="0"
         id="path3841"
         style="fill:none;stroke:#000000;stroke-width:0.63999999;stroke-linecap:butt;stroke-linejoin:miter;stroke-miterlimit:4.00344801;stroke-dasharray:none;stroke-opacity:1"
         d="M 89.051,35.383 97.359,19.949" /></g><path
       inkscape:connector-curvature="0"
       id="path3843"
       style="fill:#000000;fill-opacity:1;fill-rule:evenodd;stroke:none"
       d="m 91.617,48.275 6.137,5.43 -1.156,-8.114 c -0.887,1.875 -2.903,2.95 -4.981,2.684 z" /><g
       transform="matrix(1,0,0,-1,0,72.900002)"
       id="g3845"
       style="fill:#ffff48;fill-opacity:0.6474359"><path
         inkscape:connector-curvature="0"
         id="path3847"
         style="fill:#ffff48;fill-opacity:0.6474359;fill-rule:nonzero;stroke:#000000;stroke-width:0.47999999;stroke-linecap:butt;stroke-linejoin:miter;stroke-miterlimit:4.0999999;stroke-dasharray:none;stroke-opacity:1"
         d="m 106.207,14.664 c 0,3.313 -2.687,6 -6,6 -3.316,0 -6,-2.687 -6,-6 0,-3.312 2.684,-6 6,-6 3.313,0 6,2.688 6,6 z" /></g><g
       transform="matrix(1,0,0,-1,0,72.900002)"
       id="g3849"><path
         inkscape:connector-curvature="0"
         id="path3851"
         style="fill:none;stroke:#000000;stroke-width:0.63999999;stroke-linecap:butt;stroke-linejoin:miter;stroke-miterlimit:4.00344801;stroke-dasharray:none;stroke-opacity:1"
         d="M 75.051,61.383 83.359,45.949" /></g><path
       inkscape:connector-curvature="0"
       id="path3853"
       style="fill:#000000;fill-opacity:1;fill-rule:evenodd;stroke:none"
       d="m 77.617,22.275 6.137,5.43 -1.156,-8.114 c -0.887,1.875 -2.903,2.95 -4.981,2.684 z" /><g
       transform="matrix(1,0,0,-1,0,72.900002)"
       id="g3855"><path
         inkscape:connector-curvature="0"
         id="path3857"
         style="fill:none;stroke:#000000;stroke-width:0.63999999;stroke-linecap:butt;stroke-linejoin:miter;stroke-miterlimit:4.00344801;stroke-dasharray:none;stroke-opacity:1"
         d="m 92.207,40.664 16,0" /></g><path
       inkscape:connector-curvature="0"
       id="path3859"
       style="fill:#000000;fill-opacity:1;fill-rule:evenodd;stroke:none"
       d="m 101.363,35.076 7.692,-2.828 -7.692,-2.828 c 1.231,1.668 1.223,3.953 0,5.656 z" /><g
       transform="matrix(1,0,0,-1,0,72.900002)"
       id="g3861"><path
         inkscape:connector-curvature="0"
         id="path3863"
         style="fill:none;stroke:#000000;stroke-width:0.63999999;stroke-linecap:butt;stroke-linejoin:miter;stroke-miterlimit:4.00344801;stroke-dasharray:none;stroke-opacity:1"
         d="m 75.051,19.949 8.308,15.434" /></g><path
       inkscape:connector-curvature="0"
       id="path3865"
       style="fill:#000000;fill-opacity:1;fill-rule:evenodd;stroke:none"
       d="m 82.617,44.888 1.156,-8.113 -6.136,5.434 c 2.051,-0.293 4.062,0.796 4.98,2.679 z" /><g
       transform="matrix(1,0,0,-1,0,72.900002)"
       id="g3867"
       style="fill:#1dff21;fill-opacity:0.65000004"><path
         inkscape:connector-curvature="0"
         id="path3869"
         style="fill:#1dff21;fill-opacity:0.65000004;fill-rule:nonzero;stroke:#000000;stroke-width:0.47999999;stroke-linecap:butt;stroke-linejoin:miter;stroke-miterlimit:4.0999999;stroke-dasharray:none;stroke-opacity:1"
         d="m 92.207,40.664 c 0,3.313 -2.687,6 -6,6 -3.316,0 -6,-2.687 -6,-6 0,-3.312 2.684,-6 6,-6 3.313,0 6,2.688 6,6 z" /></g><g
       transform="matrix(1,0,0,-1,0,72.900002)"
       id="g3871"><path
         inkscape:connector-curvature="0"
         id="path3873"
         style="fill:none;stroke:#000000;stroke-width:0.63999999;stroke-linecap:butt;stroke-linejoin:miter;stroke-miterlimit:4.00344801;stroke-dasharray:none;stroke-opacity:1"
         d="m 117.051,45.949 8.308,15.434" /></g><path
       inkscape:connector-curvature="0"
       id="path3875"
       style="fill:#000000;fill-opacity:1;fill-rule:evenodd;stroke:none"
       d="m 124.617,18.888 1.156,-8.113 -6.136,5.434 c 2.051,-0.293 4.062,0.796 4.98,2.679 z" /><g
       transform="matrix(1,0,0,-1,0,72.900002)"
       id="g3877"><path
         inkscape:connector-curvature="0"
         id="path3879"
         style="fill:none;stroke:#000000;stroke-width:0.63999999;stroke-linecap:butt;stroke-linejoin:miter;stroke-miterlimit:4.00344801;stroke-dasharray:none;stroke-opacity:1"
         d="m 120.207,40.664 16,0" /></g><path
       inkscape:connector-curvature="0"
       id="path3881"
       style="fill:#000000;fill-opacity:1;fill-rule:evenodd;stroke:none"
       d="m 129.363,35.076 7.692,-2.828 -7.692,-2.828 c 1.231,1.668 1.223,3.953 0,5.656 z" /><g
       transform="matrix(1,0,0,-1,0,72.900002)"
       id="g3883"><path
         inkscape:connector-curvature="0"
         id="path3885"
         style="fill:none;stroke:#000000;stroke-width:0.63999999;stroke-linecap:butt;stroke-linejoin:miter;stroke-miterlimit:4.00344801;stroke-dasharray:none;stroke-opacity:1"
         d="m 117.051,35.383 8.308,-15.434" /></g><path
       inkscape:connector-curvature="0"
       id="path3887"
       style="fill:#000000;fill-opacity:1;fill-rule:evenodd;stroke:none"
       d="m 119.617,48.275 6.137,5.43 -1.156,-8.114 c -0.887,1.875 -2.903,2.95 -4.981,2.684 z" /><g
       transform="matrix(1,0,0,-1,0,72.900002)"
       id="g3889"><path
         inkscape:connector-curvature="0"
         id="path3891"
         style="fill:none;stroke:#000000;stroke-width:0.63999999;stroke-linecap:butt;stroke-linejoin:miter;stroke-miterlimit:4.00344801;stroke-dasharray:none;stroke-opacity:1"
         d="m 103.051,61.383 8.308,-15.434" /></g><path
       inkscape:connector-curvature="0"
       id="path3893"
       style="fill:#000000;fill-opacity:1;fill-rule:evenodd;stroke:none"
       d="m 105.617,22.275 6.137,5.43 -1.156,-8.114 c -0.887,1.875 -2.903,2.95 -4.981,2.684 z" /><g
       transform="matrix(1,0,0,-1,0,72.900002)"
       id="g3895"
       style="fill:#1dff21;fill-opacity:0.65000004"><path
         inkscape:connector-curvature="0"
         id="path3897"
         style="fill:#1dff21;fill-opacity:0.65000004;fill-rule:nonzero;stroke:#000000;stroke-width:0.47999999;stroke-linecap:butt;stroke-linejoin:miter;stroke-miterlimit:4.0999999;stroke-dasharray:none;stroke-opacity:1"
         d="m 120.207,40.664 c 0,3.313 -2.687,6 -6,6 -3.316,0 -6,-2.687 -6,-6 0,-3.312 2.684,-6 6,-6 3.313,0 6,2.688 6,6 z" /></g><g
       transform="matrix(1,0,0,-1,0,72.900002)"
       id="g3899"><path
         inkscape:connector-curvature="0"
         id="path3901"
         style="fill:none;stroke:#000000;stroke-width:0.63999999;stroke-linecap:butt;stroke-linejoin:miter;stroke-miterlimit:4.00344801;stroke-dasharray:none;stroke-opacity:1"
         d="m 145.051,35.383 8.308,-15.434" /></g><path
       inkscape:connector-curvature="0"
       id="path3903"
       style="fill:#000000;fill-opacity:1;fill-rule:evenodd;stroke:none"
       d="m 147.617,48.275 6.137,5.43 -1.156,-8.114 c -0.887,1.875 -2.903,2.95 -4.981,2.684 z" /><g
       transform="matrix(1,0,0,-1,0,72.900002)"
       id="g3905"><path
         inkscape:connector-curvature="0"
         id="path3907"
         style="fill:none;stroke:#000000;stroke-width:0.63999999;stroke-linecap:butt;stroke-linejoin:miter;stroke-miterlimit:4.00344801;stroke-dasharray:none;stroke-opacity:1"
         d="m 131.051,61.383 8.308,-15.434" /></g><path
       inkscape:connector-curvature="0"
       id="path3909"
       style="fill:#000000;fill-opacity:1;fill-rule:evenodd;stroke:none"
       d="m 133.617,22.275 6.137,5.43 -1.156,-8.114 c -0.887,1.875 -2.903,2.95 -4.981,2.684 z" /><g
       transform="matrix(1,0,0,-1,0,72.900002)"
       id="g3911"><path
         inkscape:connector-curvature="0"
         id="path3913"
         style="fill:none;stroke:#000000;stroke-width:0.63999999;stroke-linecap:butt;stroke-linejoin:miter;stroke-miterlimit:4.00344801;stroke-dasharray:none;stroke-opacity:1"
         d="m 131.051,19.949 8.308,15.434" /></g><path
       inkscape:connector-curvature="0"
       id="path3915"
       style="fill:#000000;fill-opacity:1;fill-rule:evenodd;stroke:none"
       d="m 138.617,44.888 1.156,-8.113 -6.136,5.434 c 2.051,-0.293 4.062,0.796 4.98,2.679 z" /><g
       transform="matrix(1,0,0,-1,0,72.900002)"
       id="g3917"
       style="fill:#1dff21;fill-opacity:0.65000004"><path
         inkscape:connector-curvature="0"
         id="path3919"
         style="fill:#1dff21;fill-opacity:0.65000004;fill-rule:nonzero;stroke:#000000;stroke-width:0.47999999;stroke-linecap:butt;stroke-linejoin:miter;stroke-miterlimit:4.0999999;stroke-dasharray:none;stroke-opacity:1"
         d="m 148.207,40.664 c 0,3.313 -2.687,6 -6,6 -3.316,0 -6,-2.687 -6,-6 0,-3.312 2.684,-6 6,-6 3.313,0 6,2.688 6,6 z" /></g><g
       transform="matrix(1,0,0,-1,0,72.900002)"
       id="g3921"
       style="fill:#ffff48;fill-opacity:0.6474359"><path
         inkscape:connector-curvature="0"
         id="path3923"
         style="fill:#ffff48;fill-opacity:0.6474359;fill-rule:nonzero;stroke:#000000;stroke-width:0.47999999;stroke-linecap:butt;stroke-linejoin:miter;stroke-miterlimit:4.0999999;stroke-dasharray:none;stroke-opacity:1"
         d="m 78.207,14.664 c 0,3.313 -2.687,6 -6,6 -3.316,0 -6,-2.687 -6,-6 0,-3.312 2.684,-6 6,-6 3.313,0 6,2.688 6,6 z" /></g><g
       transform="matrix(1,0,0,-1,0,72.900002)"
       id="g3925"
       style="fill:#ffff48;fill-opacity:0.6474359"><path
         inkscape:connector-curvature="0"
         id="path3927"
         style="fill:#ffff48;fill-opacity:0.6474359;fill-rule:nonzero;stroke:#000000;stroke-width:0.47999999;stroke-linecap:butt;stroke-linejoin:miter;stroke-miterlimit:4.0999999;stroke-dasharray:none;stroke-opacity:1"
         d="m 134.207,14.664 c 0,3.313 -2.687,6 -6,6 -3.316,0 -6,-2.687 -6,-6 0,-3.312 2.684,-6 6,-6 3.313,0 6,2.688 6,6 z" /></g><g
       transform="matrix(1,0,0,-1,0,72.900002)"
       id="g3929"
       style="fill:#ffff48;fill-opacity:0.6474359"><path
         inkscape:connector-curvature="0"
         id="path3931"
         style="fill:#ffff48;fill-opacity:0.6474359;fill-rule:nonzero;stroke:#000000;stroke-width:0.47999999;stroke-linecap:butt;stroke-linejoin:miter;stroke-miterlimit:4.0999999;stroke-dasharray:none;stroke-opacity:1"
         d="m 162.207,14.664 c 0,3.313 -2.687,6 -6,6 -3.316,0 -6,-2.687 -6,-6 0,-3.312 2.684,-6 6,-6 3.313,0 6,2.688 6,6 z" /></g><g
       transform="matrix(1,0,0,-1,0,72.900002)"
       id="g3933"><path
         inkscape:connector-curvature="0"
         id="path3935"
         style="fill:none;stroke:#000000;stroke-width:0.63999999;stroke-linecap:butt;stroke-linejoin:miter;stroke-miterlimit:4.00344801;stroke-dasharray:none;stroke-opacity:1"
         d="m 148.207,40.664 16,0" /></g><path
       inkscape:connector-curvature="0"
       id="path3937"
       style="fill:#000000;fill-opacity:1;fill-rule:evenodd;stroke:none"
       d="m 157.363,35.076 7.692,-2.828 -7.692,-2.828 c 1.231,1.668 1.223,3.953 0,5.656 z" /><g
       transform="matrix(1,0,0,-1,0,72.900002)"
       id="g3939"><path
         inkscape:connector-curvature="0"
         id="path3941"
         style="fill:none;stroke:#000000;stroke-width:0.63999999;stroke-linecap:butt;stroke-linejoin:miter;stroke-miterlimit:4.00344801;stroke-dasharray:none;stroke-opacity:1"
         d="m 159.051,19.949 8.308,15.434" /></g><path
       inkscape:connector-curvature="0"
       id="path3943"
       style="fill:#000000;fill-opacity:1;fill-rule:evenodd;stroke:none"
       d="m 166.617,44.888 1.156,-8.113 -6.136,5.434 c 2.051,-0.293 4.062,0.796 4.98,2.679 z" /><g
       transform="matrix(1,0,0,-1,0,72.900002)"
       id="g3945"><path
         inkscape:connector-curvature="0"
         id="path3947"
         style="fill:none;stroke:#000000;stroke-width:0.63999999;stroke-linecap:butt;stroke-linejoin:miter;stroke-miterlimit:4.00344801;stroke-dasharray:none;stroke-opacity:1"
         d="m 33.051,45.949 8.308,15.434" /></g><path
       inkscape:connector-curvature="0"
       id="path3949"
       style="fill:#000000;fill-opacity:1;fill-rule:evenodd;stroke:none"
       d="m 40.617,18.888 1.156,-8.113 -6.136,5.434 c 2.051,-0.293 4.062,0.796 4.98,2.679 z" /><g
       transform="matrix(1,0,0,-1,0,72.900002)"
       id="g3951"><path
         inkscape:connector-curvature="0"
         id="path3953"
         style="fill:none;stroke:#000000;stroke-width:0.63999999;stroke-linecap:butt;stroke-linejoin:miter;stroke-miterlimit:4.00344801;stroke-dasharray:none;stroke-opacity:1"
         d="m 89.051,45.949 8.308,15.434" /></g><path
       inkscape:connector-curvature="0"
       id="path3955"
       style="fill:#000000;fill-opacity:1;fill-rule:evenodd;stroke:none"
       d="m 96.617,18.888 1.156,-8.113 -6.136,5.434 c 2.051,-0.293 4.062,0.796 4.98,2.679 z" /><g
       transform="matrix(1,0,0,-1,0,72.900002)"
       id="g3957"><path
         inkscape:connector-curvature="0"
         id="path3959"
         style="fill:none;stroke:#000000;stroke-width:0.63999999;stroke-linecap:butt;stroke-linejoin:miter;stroke-miterlimit:4.00344801;stroke-dasharray:none;stroke-opacity:1"
         d="m 145.051,45.949 8.308,15.434" /></g><path
       inkscape:connector-curvature="0"
       id="path3961"
       style="fill:#000000;fill-opacity:1;fill-rule:evenodd;stroke:none"
       d="m 152.617,18.888 1.156,-8.113 -6.136,5.434 c 2.051,-0.293 4.062,0.796 4.98,2.679 z" /><g
       transform="matrix(1,0,0,-1,0,72.900002)"
       id="g3963"><path
         inkscape:connector-curvature="0"
         id="path3965"
         style="fill:none;stroke:#000000;stroke-width:0.63999999;stroke-linecap:butt;stroke-linejoin:miter;stroke-miterlimit:4.00344801;stroke-dasharray:none;stroke-opacity:1"
         d="m 50.207,66.664 16,0" /></g><path
       inkscape:connector-curvature="0"
       id="path3967"
       style="fill:#000000;fill-opacity:1;fill-rule:evenodd;stroke:none"
       d="M 59.363,9.076 67.055,6.248 59.363,3.42 c 1.231,1.668 1.223,3.953 0,5.656 z" /><g
       transform="matrix(1,0,0,-1,0,72.900002)"
       id="g3969"><path
         inkscape:connector-curvature="0"
         id="path3971"
         style="fill:none;stroke:#000000;stroke-width:0.63999999;stroke-linecap:butt;stroke-linejoin:miter;stroke-miterlimit:4;stroke-dasharray:none;stroke-opacity:1"
         d="M 5.898,42.32 39.141,63.445" /></g><path
       inkscape:connector-curvature="0"
       id="path3973"
       style="fill:#000000;fill-opacity:1;fill-rule:evenodd;stroke:none"
       d="m 34.891,15.521 4.972,-6.516 -8.008,1.739 c 1.934,0.754 3.153,2.683 3.036,4.777 z" /><g
       transform="matrix(1,0,0,-1,0,72.900002)"
       id="g3975"
       style="fill:#b00400;fill-opacity:1"><path
         inkscape:connector-curvature="0"
         id="path3977"
         style="fill:#b00400;fill-opacity:1;fill-rule:nonzero;stroke:#000000;stroke-width:0.47999999;stroke-linecap:butt;stroke-linejoin:miter;stroke-miterlimit:4.0999999;stroke-dasharray:none;stroke-opacity:1"
         d="m 50.207,66.664 c 0,3.313 -2.687,6 -6,6 -3.316,0 -6,-2.687 -6,-6 0,-3.312 2.684,-6 6,-6 3.313,0 6,2.688 6,6 z" /></g><path
       inkscape:connector-curvature="0"
       id="path3979"
       style="fill:#ffffff;fill-opacity:1;fill-rule:nonzero;stroke:none"
       d="m 41.16,4.498 c -0.07,-0.285 -0.082,-0.34 -0.664,-0.34 -0.113,0 -0.195,0 -0.195,-0.141 0,-0.09 0.058,-0.09 0.195,-0.09 l 2.426,0 c 1.508,0 2.953,1.543 2.953,3.137 0,1.027 -0.621,1.852 -1.719,1.852 l -2.449,0 c -0.137,0 -0.215,0 -0.215,-0.137 0,-0.094 0.055,-0.094 0.203,-0.094 0.094,0 0.231,-0.008 0.313,-0.008 0.125,-0.023 0.16,-0.035 0.16,-0.129 0,-0.023 0,-0.043 -0.023,-0.136 L 41.16,4.498 Z m 1.578,3.914 c 0.071,0.254 0.078,0.273 0.399,0.273 l 0.781,0 c 0.707,0 1.316,-0.387 1.316,-1.347 0,-0.356 -0.14,-1.559 -0.769,-2.36 -0.203,-0.273 -0.777,-0.82 -1.68,-0.82 l -0.984,0 c -0.071,0.008 -0.094,0.019 -0.094,0.078 0,0.023 0,0.035 0.035,0.16 l 0.996,4.016 z" /><path
       inkscape:connector-curvature="0"
       id="path3981"
       style="fill:#ffffff;fill-opacity:1;fill-rule:nonzero;stroke:none"
       d="m 47.75,6.084 c 0,0.136 0,0.136 -0.148,0.136 C 47.27,5.9 46.809,5.9 46.605,5.9 l 0,-0.184 c 0.114,0 0.457,0 0.731,0.137 l 0,-2.598 c 0,-0.171 0,-0.238 -0.504,-0.238 l -0.195,0 0,-0.183 c 0.093,0 0.722,0.023 0.906,0.023 0.16,0 0.801,-0.023 0.914,-0.023 l 0,0.183 -0.195,0 c -0.512,0 -0.512,0.067 -0.512,0.238 l 0,2.829 z" /><g
       transform="matrix(1,0,0,-1,0,72.900002)"
       id="g3983"><path
         inkscape:connector-curvature="0"
         id="path3985"
         style="fill:none;stroke:#000000;stroke-width:0.63999999;stroke-linecap:butt;stroke-linejoin:miter;stroke-miterlimit:4.00344801;stroke-dasharray:none;stroke-opacity:1"
         d="m 159.051,61.383 8.308,-15.434" /></g><path
       inkscape:connector-curvature="0"
       id="path3987"
       style="fill:#000000;fill-opacity:1;fill-rule:evenodd;stroke:none"
       d="m 161.617,22.275 6.137,5.43 -1.156,-8.114 c -0.887,1.875 -2.903,2.95 -4.981,2.684 z" /><g
       transform="matrix(1,0,0,-1,0,72.900002)"
       id="g3989"><path
         inkscape:connector-curvature="0"
         id="path3991"
         style="fill:none;stroke:#000000;stroke-width:0.63999999;stroke-linecap:butt;stroke-linejoin:miter;stroke-miterlimit:4;stroke-dasharray:none;stroke-opacity:1"
         d="m 6.379,40.664 17.828,0" /></g><path
       inkscape:connector-curvature="0"
       id="path3993"
       style="fill:#000000;fill-opacity:1;fill-rule:evenodd;stroke:none"
       d="m 17.363,35.076 7.692,-2.828 -7.692,-2.828 c 1.231,1.668 1.223,3.953 0,5.656 z" /><g
       transform="matrix(1,0,0,-1,0,72.900002)"
       id="g3995"><path
         inkscape:connector-curvature="0"
         id="path3997"
         style="fill:none;stroke:#000000;stroke-width:0.63999999;stroke-linecap:butt;stroke-linejoin:miter;stroke-miterlimit:4;stroke-dasharray:none;stroke-opacity:1"
         d="m 22.359,20.266 5.692,14.796" /></g><path
       inkscape:connector-curvature="0"
       id="path3999"
       style="fill:#000000;fill-opacity:1;fill-rule:evenodd;stroke:none"
       d="m 28.246,45.244 0.121,-8.196 -5.402,6.165 c 2,-0.547 4.129,0.277 5.281,2.031 z" /><g
       transform="matrix(1,0,0,-1,0,72.900002)"
       id="g4001"
       style="fill:#1dff21;fill-opacity:0.65000004"><path
         inkscape:connector-curvature="0"
         id="path4003"
         style="fill:#1dff21;fill-opacity:0.65000004;fill-rule:nonzero;stroke:#000000;stroke-width:0.47999999;stroke-linecap:butt;stroke-linejoin:miter;stroke-miterlimit:4.0999999;stroke-dasharray:none;stroke-opacity:1"
         d="m 36.207,40.664 c 0,3.313 -2.687,6 -6,6 -3.316,0 -6,-2.687 -6,-6 0,-3.312 2.684,-6 6,-6 3.313,0 6,2.688 6,6 z" /></g><path
       inkscape:connector-curvature="0"
       id="path4005"
       style="fill:#000000;fill-opacity:1;fill-rule:nonzero;stroke:none"
       d="m 31.879,34.584 c 0.07,0.265 0.078,0.332 0.629,0.332 0.16,0 0.23,0 0.23,0.148 0,0.082 -0.07,0.082 -0.195,0.082 l -0.961,0 c -0.195,0 -0.207,0 -0.285,-0.137 l -2.668,-4.164 -0.57,4.129 c -0.024,0.172 -0.036,0.172 -0.231,0.172 l -0.996,0 c -0.137,0 -0.215,0 -0.215,-0.137 0,-0.093 0.067,-0.093 0.203,-0.093 0.106,0 0.231,-0.012 0.321,-0.012 0.117,-0.02 0.16,-0.031 0.16,-0.125 0,-0.024 -0.012,-0.047 -0.031,-0.137 l -0.93,-3.707 c -0.067,-0.297 -0.195,-0.527 -0.789,-0.551 -0.035,0 -0.125,-0.011 -0.125,-0.136 0,-0.067 0.047,-0.09 0.101,-0.09 0.231,0 0.481,0.023 0.735,0.023 0.238,0 0.504,-0.023 0.742,-0.023 0.035,0 0.137,0 0.137,0.148 0,0.078 -0.079,0.078 -0.137,0.078 -0.41,0 -0.492,0.149 -0.492,0.321 0,0.047 0,0.093 0.023,0.172 l 0.996,3.972 0.012,0 0.629,-4.519 c 0.012,-0.094 0.023,-0.172 0.101,-0.172 0.082,0 0.129,0.078 0.161,0.125 l 2.953,4.621 0.011,0 -1.054,-4.176 c -0.067,-0.285 -0.078,-0.344 -0.66,-0.344 -0.118,0 -0.196,0 -0.196,-0.136 0,-0.09 0.078,-0.09 0.102,-0.09 0.207,0 0.699,0.023 0.906,0.023 0.297,0 0.617,-0.023 0.914,-0.023 0.047,0 0.137,0 0.137,0.148 0,0.078 -0.07,0.078 -0.207,0.078 -0.262,0 -0.469,0 -0.469,0.129 0,0.032 0,0.043 0.035,0.18 l 0.973,3.891 z" /><path
       inkscape:connector-curvature="0"
       id="path4007"
       style="fill:#000000;fill-opacity:1;fill-rule:nonzero;stroke:none"
       d="m 33.898,32.314 c 0,0.137 0,0.137 -0.148,0.137 C 33.418,32.13 32.961,32.13 32.754,32.13 l 0,-0.183 c 0.117,0 0.457,0 0.734,0.137 l 0,-2.598 c 0,-0.172 0,-0.238 -0.504,-0.238 l -0.195,0 0,-0.184 c 0.09,0 0.723,0.024 0.902,0.024 0.161,0 0.801,-0.024 0.918,-0.024 l 0,0.184 -0.195,0 c -0.516,0 -0.516,0.066 -0.516,0.238 l 0,2.828 z" /><g
       transform="matrix(1,0,0,-1,0,72.900002)"
       id="g4009"><path
         inkscape:connector-curvature="0"
         id="path4011"
         style="fill:none;stroke:#000000;stroke-width:0.63999999;stroke-linecap:butt;stroke-linejoin:miter;stroke-miterlimit:4;stroke-dasharray:none;stroke-opacity:1"
         d="M 4.977,38.078 16.934,19.695" /></g><path
       inkscape:connector-curvature="0"
       id="path4013"
       style="fill:#000000;fill-opacity:1;fill-rule:evenodd;stroke:none"
       d="m 10.82,49.017 6.567,4.906 -1.825,-7.988 c -0.726,1.938 -2.648,3.18 -4.742,3.082 z" /><path
       inkscape:connector-curvature="0"
       id="path4015"
       style="fill:#000000;fill-opacity:1;fill-rule:nonzero;stroke:none"
       d="m 59.715,34.584 c 0.066,0.265 0.078,0.332 0.629,0.332 0.16,0 0.226,0 0.226,0.148 0,0.082 -0.066,0.082 -0.191,0.082 l -0.961,0 c -0.195,0 -0.207,0 -0.289,-0.137 l -2.664,-4.164 -0.574,4.129 c -0.02,0.172 -0.032,0.172 -0.227,0.172 l -0.996,0 c -0.137,0 -0.219,0 -0.219,-0.137 0,-0.093 0.071,-0.093 0.207,-0.093 0.102,0 0.231,-0.012 0.321,-0.012 0.113,-0.02 0.16,-0.031 0.16,-0.125 0,-0.024 -0.012,-0.043 -0.035,-0.137 l -0.926,-3.707 c -0.071,-0.297 -0.196,-0.527 -0.789,-0.551 -0.035,0 -0.125,-0.007 -0.125,-0.136 0,-0.067 0.043,-0.09 0.101,-0.09 0.231,0 0.481,0.023 0.735,0.023 0.238,0 0.5,-0.023 0.742,-0.023 0.035,0 0.137,0 0.137,0.148 0,0.078 -0.079,0.078 -0.137,0.078 -0.414,0 -0.492,0.153 -0.492,0.321 0,0.047 0,0.093 0.023,0.172 l 0.996,3.972 0.012,0 0.629,-4.519 c 0.012,-0.094 0.023,-0.172 0.101,-0.172 0.082,0 0.125,0.078 0.161,0.125 l 2.953,4.621 0.011,0 -1.054,-4.176 c -0.067,-0.285 -0.078,-0.344 -0.664,-0.344 -0.114,0 -0.192,0 -0.192,-0.136 0,-0.09 0.078,-0.09 0.102,-0.09 0.207,0 0.699,0.023 0.902,0.023 0.297,0 0.621,-0.023 0.918,-0.023 0.043,0 0.137,0 0.137,0.148 0,0.078 -0.071,0.078 -0.207,0.078 -0.262,0 -0.469,0 -0.469,0.129 0,0.032 0,0.043 0.035,0.184 l 0.973,3.887 z" /><path
       inkscape:connector-curvature="0"
       id="path4017"
       style="fill:#000000;fill-opacity:1;fill-rule:nonzero;stroke:none"
       d="m 62.605,29.99 -0.171,0 c -0.012,-0.113 -0.071,-0.41 -0.137,-0.457 -0.035,-0.035 -0.426,-0.035 -0.504,-0.035 l -0.938,0 c 0.536,0.468 0.719,0.617 1.016,0.859 0.379,0.297 0.734,0.617 0.734,1.098 0,0.617 -0.539,0.996 -1.191,0.996 -0.629,0 -1.062,-0.446 -1.062,-0.918 0,-0.25 0.214,-0.285 0.273,-0.285 0.113,0 0.262,0.093 0.262,0.277 0,0.09 -0.032,0.273 -0.297,0.273 0.16,0.356 0.504,0.469 0.746,0.469 0.512,0 0.777,-0.402 0.777,-0.812 0,-0.446 -0.32,-0.789 -0.48,-0.973 l -1.227,-1.223 c -0.054,-0.046 -0.054,-0.058 -0.054,-0.195 l 2.105,0 0.148,0.926 z" /><path
       inkscape:connector-curvature="0"
       id="path4019"
       style="fill:#000000;fill-opacity:1;fill-rule:nonzero;stroke:none"
       d="m 87.852,34.689 c 0.066,0.262 0.078,0.332 0.628,0.332 0.161,0 0.231,0 0.231,0.149 0,0.078 -0.07,0.078 -0.195,0.078 l -0.961,0 c -0.196,0 -0.207,0 -0.285,-0.137 l -2.668,-4.164 -0.571,4.129 c -0.023,0.172 -0.035,0.172 -0.23,0.172 l -0.996,0 c -0.137,0 -0.219,0 -0.219,-0.137 0,-0.09 0.07,-0.09 0.207,-0.09 0.105,0 0.23,-0.012 0.32,-0.012 0.117,-0.023 0.16,-0.035 0.16,-0.125 0,-0.023 -0.011,-0.046 -0.035,-0.14 l -0.926,-3.707 c -0.066,-0.297 -0.195,-0.524 -0.789,-0.547 -0.035,0 -0.125,-0.012 -0.125,-0.137 0,-0.07 0.047,-0.094 0.102,-0.094 0.23,0 0.48,0.024 0.734,0.024 0.239,0 0.504,-0.024 0.743,-0.024 0.035,0 0.136,0 0.136,0.149 0,0.082 -0.078,0.082 -0.136,0.082 -0.411,0 -0.493,0.148 -0.493,0.32 0,0.047 0,0.09 0.024,0.172 l 0.996,3.969 0.012,0 0.629,-4.52 c 0.011,-0.09 0.023,-0.172 0.101,-0.172 0.082,0 0.125,0.082 0.16,0.125 l 2.953,4.625 0.012,0 -1.055,-4.175 c -0.066,-0.289 -0.078,-0.344 -0.66,-0.344 -0.117,0 -0.195,0 -0.195,-0.137 0,-0.094 0.078,-0.094 0.101,-0.094 0.208,0 0.7,0.024 0.903,0.024 0.301,0 0.621,-0.024 0.918,-0.024 0.047,0 0.137,0 0.137,0.149 0,0.082 -0.071,0.082 -0.208,0.082 -0.261,0 -0.468,0 -0.468,0.125 0,0.035 0,0.047 0.035,0.183 l 0.973,3.891 z" /><path
       inkscape:connector-curvature="0"
       id="path4021"
       style="fill:#000000;fill-opacity:1;fill-rule:nonzero;stroke:none"
       d="m 89.562,30.873 c 0.403,0 0.688,-0.278 0.688,-0.825 0,-0.628 -0.379,-0.824 -0.664,-0.824 -0.207,0 -0.664,0.055 -0.871,0.367 0.242,0 0.297,0.168 0.297,0.286 0,0.16 -0.125,0.273 -0.285,0.273 -0.137,0 -0.286,-0.09 -0.286,-0.297 0,-0.48 0.528,-0.789 1.145,-0.789 0.707,0 1.199,0.481 1.199,0.984 0,0.399 -0.32,0.801 -0.879,0.915 0.528,0.195 0.719,0.57 0.719,0.894 0,0.398 -0.457,0.695 -1.027,0.695 -0.563,0 -0.996,-0.273 -0.996,-0.687 0,-0.168 0.113,-0.262 0.261,-0.262 0.16,0 0.266,0.113 0.266,0.254 0,0.148 -0.106,0.262 -0.266,0.273 0.184,0.215 0.528,0.274 0.723,0.274 0.226,0 0.547,-0.113 0.547,-0.547 0,-0.219 -0.067,-0.461 -0.203,-0.609 -0.16,-0.196 -0.309,-0.203 -0.563,-0.227 -0.125,-0.012 -0.137,-0.012 -0.16,-0.012 -0.012,0 -0.055,-0.011 -0.055,-0.07 0,-0.066 0.043,-0.066 0.137,-0.066 l 0.273,0 z" /><path
       inkscape:connector-curvature="0"
       id="path4023"
       style="fill:#000000;fill-opacity:1;fill-rule:nonzero;stroke:none"
       d="m 115.785,34.584 c 0.07,0.265 0.082,0.332 0.629,0.332 0.16,0 0.231,0 0.231,0.148 0,0.082 -0.071,0.082 -0.196,0.082 l -0.961,0 c -0.195,0 -0.207,0 -0.285,-0.137 l -2.668,-4.164 -0.57,4.129 c -0.024,0.172 -0.035,0.172 -0.231,0.172 l -0.996,0 c -0.136,0 -0.215,0 -0.215,-0.137 0,-0.093 0.067,-0.093 0.204,-0.093 0.105,0 0.23,-0.012 0.32,-0.012 0.117,-0.02 0.16,-0.031 0.16,-0.125 0,-0.024 -0.008,-0.043 -0.031,-0.137 l -0.93,-3.707 c -0.066,-0.297 -0.191,-0.527 -0.789,-0.551 -0.031,0 -0.125,-0.007 -0.125,-0.136 0,-0.067 0.047,-0.09 0.102,-0.09 0.23,0 0.48,0.023 0.734,0.023 0.238,0 0.504,-0.023 0.742,-0.023 0.035,0 0.137,0 0.137,0.148 0,0.078 -0.078,0.078 -0.137,0.078 -0.41,0 -0.492,0.153 -0.492,0.321 0,0.047 0,0.093 0.023,0.172 l 0.997,3.972 0.011,0 0.629,-4.519 c 0.012,-0.094 0.024,-0.172 0.102,-0.172 0.082,0 0.129,0.078 0.16,0.125 l 2.953,4.621 0.012,0 -1.051,-4.176 c -0.07,-0.285 -0.082,-0.344 -0.664,-0.344 -0.117,0 -0.195,0 -0.195,-0.136 0,-0.09 0.078,-0.09 0.101,-0.09 0.207,0 0.699,0.023 0.906,0.023 0.297,0 0.618,-0.023 0.914,-0.023 0.047,0 0.137,0 0.137,0.148 0,0.078 -0.066,0.078 -0.207,0.078 -0.262,0 -0.469,0 -0.469,0.129 0,0.032 0,0.043 0.035,0.184 l 0.973,3.887 z" /><path
       inkscape:connector-curvature="0"
       id="path4025"
       style="fill:#000000;fill-opacity:1;fill-rule:nonzero;stroke:none"
       d="m 118.801,29.9 0,0.18 -0.571,0 0,2.277 c 0,0.106 0,0.148 -0.105,0.148 -0.066,0 -0.09,0 -0.137,-0.078 l -1.691,-2.347 0,-0.18 1.508,0 0,-0.414 c 0,-0.184 0,-0.238 -0.422,-0.238 l -0.137,0 0,-0.184 c 0.262,0.012 0.582,0.024 0.766,0.024 0.195,0 0.515,-0.012 0.777,-0.024 l 0,0.184 -0.137,0 c -0.422,0 -0.422,0.054 -0.422,0.238 l 0,0.414 0.571,0 z m -0.961,2.047 0,-1.867 -1.352,0 1.352,1.867 z" /><path
       inkscape:connector-curvature="0"
       id="path4027"
       style="fill:#000000;fill-opacity:1;fill-rule:nonzero;stroke:none"
       d="m 144.125,34.689 c 0.07,0.262 0.082,0.332 0.629,0.332 0.16,0 0.23,0 0.23,0.149 0,0.078 -0.07,0.078 -0.195,0.078 l -0.961,0 c -0.195,0 -0.207,0 -0.285,-0.137 l -2.668,-4.164 -0.57,4.129 c -0.024,0.172 -0.035,0.172 -0.231,0.172 l -0.996,0 c -0.137,0 -0.215,0 -0.215,-0.137 0,-0.09 0.067,-0.09 0.203,-0.09 0.106,0 0.231,-0.012 0.321,-0.012 0.117,-0.023 0.16,-0.035 0.16,-0.125 0,-0.023 -0.012,-0.046 -0.031,-0.14 l -0.93,-3.707 c -0.066,-0.297 -0.195,-0.524 -0.789,-0.547 -0.035,0 -0.125,-0.012 -0.125,-0.137 0,-0.07 0.047,-0.094 0.101,-0.094 0.231,0 0.481,0.024 0.735,0.024 0.238,0 0.504,-0.024 0.742,-0.024 0.035,0 0.137,0 0.137,0.149 0,0.082 -0.078,0.082 -0.137,0.082 -0.41,0 -0.492,0.148 -0.492,0.32 0,0.047 0,0.09 0.023,0.172 l 0.996,3.969 0.012,0 0.629,-4.52 c 0.012,-0.09 0.023,-0.172 0.102,-0.172 0.082,0 0.128,0.082 0.16,0.125 l 2.953,4.625 0.012,0 -1.051,-4.175 c -0.071,-0.289 -0.082,-0.344 -0.664,-0.344 -0.118,0 -0.196,0 -0.196,-0.137 0,-0.094 0.078,-0.094 0.102,-0.094 0.207,0 0.699,0.024 0.906,0.024 0.297,0 0.617,-0.024 0.914,-0.024 0.047,0 0.137,0 0.137,0.149 0,0.082 -0.07,0.082 -0.207,0.082 -0.262,0 -0.469,0 -0.469,0.125 0,0.035 0,0.047 0.035,0.183 l 0.973,3.891 z" /><path
       inkscape:connector-curvature="0"
       id="path4029"
       style="fill:#000000;fill-opacity:1;fill-rule:nonzero;stroke:none"
       d="m 145.23,32.017 c 0.262,-0.07 0.411,-0.07 0.493,-0.07 0.675,0 1.074,0.457 1.074,0.539 0,0.055 -0.035,0.066 -0.055,0.066 -0.012,0 -0.023,0 -0.047,-0.011 -0.125,-0.043 -0.39,-0.149 -0.765,-0.149 -0.153,0 -0.414,0.012 -0.746,0.137 -0.055,0.023 -0.067,0.023 -0.067,0.023 -0.07,0 -0.07,-0.054 -0.07,-0.136 l 0,-1.5 c 0,-0.09 0,-0.149 0.082,-0.149 0.043,0 0.055,0 0.101,0.071 0.219,0.273 0.54,0.32 0.708,0.32 0.312,0 0.449,-0.242 0.472,-0.285 0.09,-0.172 0.125,-0.368 0.125,-0.664 0,-0.149 0,-0.45 -0.16,-0.676 -0.125,-0.184 -0.344,-0.309 -0.598,-0.309 -0.328,0 -0.672,0.184 -0.8,0.528 0.195,-0.012 0.3,0.113 0.3,0.25 0,0.218 -0.195,0.25 -0.265,0.25 0,0 -0.25,0 -0.25,-0.274 0,-0.457 0.422,-0.914 1.027,-0.914 0.652,0 1.227,0.481 1.227,1.133 0,0.57 -0.434,1.098 -1.067,1.098 -0.226,0 -0.492,-0.047 -0.719,-0.243 l 0,0.965 z" /><g
       transform="matrix(1,0,0,-1,0,72.900002)"
       id="g4031"><path
         inkscape:connector-curvature="0"
         id="path4033"
         style="fill:none;stroke:#000000;stroke-width:0.63999999;stroke-linecap:butt;stroke-linejoin:miter;stroke-miterlimit:4;stroke-dasharray:none;stroke-opacity:1"
         d="m 172.359,35.062 5.692,-14.796" /></g><path
       inkscape:connector-curvature="0"
       id="path4035"
       style="fill:#000000;fill-opacity:1;fill-rule:evenodd;stroke:none"
       d="m 172.945,47.267 5.403,6.164 -0.121,-8.195 c -1.122,1.746 -3.254,2.559 -5.282,2.031 z" /><g
       transform="matrix(1,0,0,-1,0,72.900002)"
       id="g4037"><path
         inkscape:connector-curvature="0"
         id="path4039"
         style="fill:none;stroke:#000000;stroke-width:0.63999999;stroke-linecap:butt;stroke-linejoin:miter;stroke-miterlimit:4;stroke-dasharray:none;stroke-opacity:1"
         d="M 161.27,63.445 194.516,42.32" /></g><path
       inkscape:connector-curvature="0"
       id="path4041"
       style="fill:#000000;fill-opacity:1;fill-rule:evenodd;stroke:none"
       d="m 187.219,29.306 8.008,1.739 -4.977,-6.512 c 0.141,2.066 -1.09,3.992 -3.031,4.773 z" /><g
       transform="matrix(1,0,0,-1,0,72.900002)"
       id="g4043"
       style="fill:#1dff21;fill-opacity:0.65000004"><path
         inkscape:connector-curvature="0"
         id="path4045"
         style="fill:#1dff21;fill-opacity:0.65000004;fill-rule:nonzero;stroke:#000000;stroke-width:0.47999999;stroke-linecap:butt;stroke-linejoin:miter;stroke-miterlimit:4.0999999;stroke-dasharray:none;stroke-opacity:1"
         d="m 176.207,40.664 c 0,3.313 -2.687,6 -6,6 -3.316,0 -6,-2.687 -6,-6 0,-3.312 2.684,-6 6,-6 3.313,0 6,2.688 6,6 z" /></g><path
       inkscape:connector-curvature="0"
       id="path4047"
       style="fill:#000000;fill-opacity:1;fill-rule:nonzero;stroke:none"
       d="m 171.859,34.689 c 0.067,0.262 0.079,0.332 0.629,0.332 0.16,0 0.227,0 0.227,0.149 0,0.078 -0.067,0.078 -0.195,0.078 l -0.961,0 c -0.192,0 -0.204,0 -0.286,-0.137 l -2.664,-4.164 -0.574,4.129 c -0.023,0.172 -0.035,0.172 -0.226,0.172 l -0.997,0 c -0.136,0 -0.218,0 -0.218,-0.137 0,-0.09 0.07,-0.09 0.207,-0.09 0.101,0 0.226,-0.012 0.32,-0.012 0.113,-0.023 0.16,-0.035 0.16,-0.125 0,-0.023 -0.011,-0.046 -0.035,-0.14 l -0.926,-3.707 c -0.07,-0.297 -0.195,-0.524 -0.789,-0.547 -0.035,0 -0.129,-0.012 -0.129,-0.137 0,-0.07 0.047,-0.094 0.106,-0.094 0.226,0 0.48,0.024 0.73,0.024 0.242,0 0.504,-0.024 0.746,-0.024 0.032,0 0.137,0 0.137,0.149 0,0.082 -0.082,0.082 -0.137,0.082 -0.414,0 -0.492,0.148 -0.492,0.32 0,0.047 0,0.09 0.024,0.172 l 0.992,3.969 0.012,0 0.628,-4.52 c 0.012,-0.09 0.024,-0.172 0.106,-0.172 0.078,0 0.125,0.082 0.16,0.125 l 2.953,4.625 0.012,0 -1.055,-4.175 c -0.07,-0.289 -0.078,-0.344 -0.664,-0.344 -0.113,0 -0.195,0 -0.195,-0.137 0,-0.094 0.082,-0.094 0.105,-0.094 0.203,0 0.696,0.024 0.903,0.024 0.297,0 0.617,-0.024 0.914,-0.024 0.047,0 0.14,0 0.14,0.149 0,0.082 -0.07,0.082 -0.207,0.082 -0.261,0 -0.468,0 -0.468,0.125 0,0.035 0,0.047 0.035,0.183 l 0.972,3.891 z" /><path
       inkscape:connector-curvature="0"
       id="path4049"
       style="fill:#000000;fill-opacity:1;fill-rule:nonzero;stroke:none"
       d="m 172.941,30.838 c 0,0.41 0.032,0.789 0.227,1.109 0.172,0.273 0.445,0.457 0.777,0.457 0.149,0 0.356,-0.035 0.457,-0.172 -0.125,-0.012 -0.238,-0.102 -0.238,-0.25 0,-0.125 0.09,-0.242 0.238,-0.242 0.16,0 0.254,0.105 0.254,0.254 0,0.297 -0.218,0.558 -0.722,0.558 -0.731,0 -1.485,-0.675 -1.485,-1.773 0,-1.316 0.617,-1.715 1.188,-1.715 0.617,0 1.156,0.481 1.156,1.145 0,0.652 -0.516,1.132 -1.109,1.132 -0.414,0 -0.629,-0.277 -0.743,-0.503 z m 0.696,-1.614 c -0.262,0 -0.457,0.149 -0.571,0.375 -0.07,0.153 -0.117,0.414 -0.117,0.711 0,0.504 0.301,0.883 0.711,0.883 0.231,0 0.391,-0.094 0.516,-0.277 0.125,-0.192 0.125,-0.411 0.125,-0.707 0,-0.289 0,-0.504 -0.137,-0.711 -0.113,-0.172 -0.285,-0.274 -0.527,-0.274 z" /><g
       transform="matrix(1,0,0,-1,0,72.900002)"
       id="g4051"
       style="fill:#ffff48;fill-opacity:0.6474359"><path
         inkscape:connector-curvature="0"
         id="path4053"
         style="fill:#ffff48;fill-opacity:0.6474359;fill-rule:nonzero;stroke:#000000;stroke-width:0.47999999;stroke-linecap:butt;stroke-linejoin:miter;stroke-miterlimit:4.0999999;stroke-dasharray:none;stroke-opacity:1"
         d="m 50.207,14.664 c 0,3.313 -2.687,6 -6,6 -3.316,0 -6,-2.687 -6,-6 0,-3.312 2.684,-6 6,-6 3.313,0 6,2.688 6,6 z" /></g><path
       inkscape:connector-curvature="0"
       id="path4055"
       style="fill:#000000;fill-opacity:1;fill-rule:nonzero;stroke:none"
       d="m 44.223,60.537 c 0.054,0.261 0.078,0.332 0.66,0.332 0.172,0 0.23,0 0.23,0.136 0,0.094 -0.078,0.094 -0.101,0.094 -0.219,0 -0.758,-0.023 -0.973,-0.023 -0.219,0 -0.746,0.023 -0.973,0.023 -0.046,0 -0.136,0 -0.136,-0.148 0,-0.082 0.054,-0.082 0.203,-0.082 0.297,0 0.504,0 0.504,-0.137 0,-0.035 0,-0.059 -0.024,-0.113 l -0.984,-3.938 c -0.067,-0.273 -0.078,-0.343 -0.664,-0.343 -0.168,0 -0.227,0 -0.227,-0.149 0,-0.078 0.078,-0.078 0.102,-0.078 0.219,0 0.746,0.019 0.961,0.019 0.219,0 0.758,-0.019 0.972,-0.019 0.059,0 0.149,0 0.149,0.137 0,0.09 -0.055,0.09 -0.215,0.09 -0.137,0 -0.172,0 -0.309,0.011 -0.16,0.012 -0.183,0.047 -0.183,0.125 0,0.059 0.012,0.117 0.023,0.172 l 0.985,3.891 z" /><path
       inkscape:connector-curvature="0"
       id="path4057"
       style="fill:#000000;fill-opacity:1;fill-rule:nonzero;stroke:none"
       d="m 46.398,58.263 c 0,0.137 0,0.137 -0.148,0.137 -0.332,-0.32 -0.789,-0.32 -0.996,-0.32 l 0,-0.18 c 0.113,0 0.457,0 0.734,0.137 l 0,-2.598 c 0,-0.172 0,-0.242 -0.504,-0.242 l -0.195,0 0,-0.184 c 0.09,0 0.719,0.024 0.902,0.024 0.161,0 0.801,-0.024 0.918,-0.024 l 0,0.184 -0.195,0 c -0.516,0 -0.516,0.07 -0.516,0.242 l 0,2.824 z" /><path
       inkscape:connector-curvature="0"
       id="path4059"
       style="fill:#000000;fill-opacity:1;fill-rule:nonzero;stroke:none"
       d="m 72.297,60.568 c 0.058,0.266 0.082,0.332 0.664,0.332 0.172,0 0.23,0 0.23,0.137 0,0.093 -0.082,0.093 -0.105,0.093 -0.215,0 -0.754,-0.023 -0.973,-0.023 -0.215,0 -0.742,0.023 -0.972,0.023 -0.043,0 -0.137,0 -0.137,-0.148 0,-0.082 0.058,-0.082 0.207,-0.082 0.297,0 0.504,0 0.504,-0.137 0,-0.035 0,-0.058 -0.024,-0.113 l -0.984,-3.937 c -0.066,-0.274 -0.078,-0.344 -0.664,-0.344 -0.172,0 -0.227,0 -0.227,-0.149 0,-0.078 0.079,-0.078 0.102,-0.078 0.219,0 0.742,0.02 0.961,0.02 0.219,0 0.754,-0.02 0.973,-0.02 0.058,0 0.148,0 0.148,0.137 0,0.09 -0.055,0.09 -0.215,0.09 -0.14,0 -0.172,0 -0.312,0.011 -0.161,0.012 -0.18,0.047 -0.18,0.125 0,0.059 0.008,0.118 0.019,0.172 l 0.985,3.891 z" /><path
       inkscape:connector-curvature="0"
       id="path4061"
       style="fill:#000000;fill-opacity:1;fill-rule:nonzero;stroke:none"
       d="m 75.344,55.974 -0.172,0 C 75.164,55.857 75.105,55.56 75.035,55.517 75.004,55.482 74.613,55.482 74.531,55.482 l -0.937,0 c 0.539,0.469 0.722,0.617 1.019,0.859 0.379,0.297 0.731,0.618 0.731,1.098 0,0.617 -0.535,0.996 -1.188,0.996 -0.629,0 -1.066,-0.449 -1.066,-0.918 0,-0.25 0.219,-0.285 0.277,-0.285 0.113,0 0.262,0.09 0.262,0.273 0,0.094 -0.035,0.278 -0.297,0.278 0.16,0.351 0.504,0.469 0.742,0.469 0.516,0 0.778,-0.403 0.778,-0.813 0,-0.449 -0.321,-0.789 -0.481,-0.973 L 73.148,55.24 C 73.09,55.197 73.09,55.185 73.09,55.048 l 2.105,0 0.149,0.926 z" /><path
       inkscape:connector-curvature="0"
       id="path4063"
       style="fill:#000000;fill-opacity:1;fill-rule:nonzero;stroke:none"
       d="m 100.254,60.947 c 0.058,0.262 0.078,0.332 0.664,0.332 0.172,0 0.227,0 0.227,0.137 0,0.089 -0.079,0.089 -0.102,0.089 -0.219,0 -0.754,-0.023 -0.973,-0.023 -0.218,0 -0.742,0.023 -0.972,0.023 -0.047,0 -0.137,0 -0.137,-0.148 0,-0.078 0.059,-0.078 0.207,-0.078 0.297,0 0.504,0 0.504,-0.141 0,-0.031 0,-0.054 -0.024,-0.113 l -0.984,-3.937 c -0.07,-0.274 -0.082,-0.34 -0.664,-0.34 -0.172,0 -0.23,0 -0.23,-0.149 0,-0.082 0.082,-0.082 0.105,-0.082 0.215,0 0.742,0.024 0.961,0.024 0.215,0 0.754,-0.024 0.973,-0.024 0.054,0 0.148,0 0.148,0.137 0,0.094 -0.059,0.094 -0.219,0.094 -0.136,0 -0.172,0 -0.308,0.011 -0.16,0.008 -0.184,0.043 -0.184,0.125 0,0.055 0.012,0.114 0.024,0.172 l 0.984,3.891 z" /><path
       inkscape:connector-curvature="0"
       id="path4065"
       style="fill:#000000;fill-opacity:1;fill-rule:nonzero;stroke:none"
       d="m 102.121,57.127 c 0.402,0 0.688,-0.274 0.688,-0.821 0,-0.633 -0.379,-0.824 -0.664,-0.824 -0.207,0 -0.665,0.055 -0.872,0.363 0.243,0 0.301,0.172 0.301,0.289 0,0.161 -0.129,0.274 -0.289,0.274 -0.137,0 -0.285,-0.094 -0.285,-0.297 0,-0.481 0.527,-0.789 1.145,-0.789 0.71,0 1.203,0.48 1.203,0.984 0,0.399 -0.321,0.801 -0.883,0.914 0.527,0.196 0.723,0.571 0.723,0.891 0,0.402 -0.461,0.699 -1.032,0.699 -0.562,0 -0.996,-0.273 -0.996,-0.687 0,-0.172 0.113,-0.262 0.262,-0.262 0.16,0 0.266,0.113 0.266,0.25 0,0.148 -0.106,0.266 -0.266,0.277 0.183,0.215 0.527,0.274 0.723,0.274 0.23,0 0.55,-0.114 0.55,-0.551 0,-0.215 -0.07,-0.457 -0.207,-0.606 -0.16,-0.195 -0.308,-0.207 -0.562,-0.23 -0.125,-0.008 -0.137,-0.008 -0.16,-0.008 -0.012,0 -0.055,-0.012 -0.055,-0.07 0,-0.07 0.043,-0.07 0.137,-0.07 l 0.273,0 z" /><path
       inkscape:connector-curvature="0"
       id="path4067"
       style="fill:#000000;fill-opacity:1;fill-rule:nonzero;stroke:none"
       d="m 128.387,60.537 c 0.058,0.265 0.078,0.332 0.664,0.332 0.172,0 0.226,0 0.226,0.136 0,0.094 -0.078,0.094 -0.101,0.094 -0.219,0 -0.754,-0.023 -0.973,-0.023 -0.219,0 -0.742,0.023 -0.973,0.023 -0.046,0 -0.136,0 -0.136,-0.148 0,-0.082 0.058,-0.082 0.207,-0.082 0.297,0 0.504,0 0.504,-0.137 0,-0.035 0,-0.059 -0.024,-0.113 l -0.984,-3.938 c -0.07,-0.273 -0.082,-0.343 -0.664,-0.343 -0.172,0 -0.231,0 -0.231,-0.149 0,-0.078 0.082,-0.078 0.106,-0.078 0.215,0 0.742,0.019 0.961,0.019 0.215,0 0.754,-0.019 0.972,-0.019 0.055,0 0.149,0 0.149,0.137 0,0.09 -0.059,0.09 -0.219,0.09 -0.137,0 -0.172,0 -0.309,0.011 -0.16,0.012 -0.183,0.047 -0.183,0.125 0,0.059 0.012,0.117 0.023,0.172 l 0.985,3.891 z" /><path
       inkscape:connector-curvature="0"
       id="path4069"
       style="fill:#000000;fill-opacity:1;fill-rule:nonzero;stroke:none"
       d="m 131.559,55.849 0,0.184 -0.571,0 0,2.277 c 0,0.102 0,0.149 -0.105,0.149 -0.067,0 -0.09,0 -0.137,-0.079 l -1.691,-2.347 0,-0.184 1.507,0 0,-0.41 c 0,-0.184 0,-0.242 -0.421,-0.242 l -0.137,0 0,-0.18 c 0.262,0.008 0.582,0.02 0.766,0.02 0.195,0 0.515,-0.012 0.777,-0.02 l 0,0.18 -0.137,0 c -0.422,0 -0.422,0.058 -0.422,0.242 l 0,0.41 0.571,0 z m -0.961,2.051 0,-1.867 -1.348,0 1.348,1.867 z" /><path
       inkscape:connector-curvature="0"
       id="path4071"
       style="fill:#000000;fill-opacity:1;fill-rule:nonzero;stroke:none"
       d="m 156.055,60.642 c 0.058,0.262 0.078,0.328 0.664,0.328 0.172,0 0.226,0 0.226,0.141 0,0.09 -0.078,0.09 -0.101,0.09 -0.219,0 -0.754,-0.024 -0.973,-0.024 -0.219,0 -0.742,0.024 -0.973,0.024 -0.046,0 -0.136,0 -0.136,-0.149 0,-0.082 0.058,-0.082 0.207,-0.082 0.297,0 0.504,0 0.504,-0.136 0,-0.032 0,-0.055 -0.024,-0.114 l -0.984,-3.937 c -0.07,-0.274 -0.082,-0.34 -0.664,-0.34 -0.172,0 -0.231,0 -0.231,-0.152 0,-0.078 0.082,-0.078 0.106,-0.078 0.215,0 0.742,0.023 0.961,0.023 0.215,0 0.754,-0.023 0.972,-0.023 0.055,0 0.149,0 0.149,0.136 0,0.094 -0.059,0.094 -0.219,0.094 -0.137,0 -0.172,0 -0.309,0.008 -0.16,0.012 -0.183,0.047 -0.183,0.129 0,0.054 0.012,0.113 0.023,0.172 l 0.985,3.89 z" /><path
       inkscape:connector-curvature="0"
       id="path4073"
       style="fill:#000000;fill-opacity:1;fill-rule:nonzero;stroke:none"
       d="m 157.316,57.966 c 0.262,-0.066 0.414,-0.066 0.493,-0.066 0.675,0 1.074,0.457 1.074,0.535 0,0.059 -0.031,0.07 -0.055,0.07 -0.012,0 -0.023,0 -0.047,-0.011 -0.125,-0.047 -0.39,-0.149 -0.765,-0.149 -0.149,0 -0.414,0.012 -0.746,0.137 -0.055,0.023 -0.067,0.023 -0.067,0.023 -0.07,0 -0.07,-0.058 -0.07,-0.136 l 0,-1.5 c 0,-0.09 0,-0.149 0.082,-0.149 0.043,0 0.055,0 0.101,0.071 0.219,0.273 0.539,0.32 0.711,0.32 0.309,0 0.446,-0.242 0.469,-0.289 0.09,-0.172 0.125,-0.363 0.125,-0.664 0,-0.149 0,-0.445 -0.16,-0.672 -0.125,-0.184 -0.344,-0.309 -0.594,-0.309 -0.332,0 -0.676,0.18 -0.801,0.524 0.192,-0.012 0.297,0.117 0.297,0.254 0,0.215 -0.195,0.25 -0.265,0.25 0,0 -0.25,0 -0.25,-0.274 0,-0.457 0.422,-0.914 1.031,-0.914 0.652,0 1.223,0.481 1.223,1.129 0,0.574 -0.434,1.102 -1.063,1.102 -0.23,0 -0.492,-0.047 -0.723,-0.243 l 0,0.961 z" /><g
       transform="matrix(1,0,0,-1,0,72.900002)"
       id="g4075"
       style="fill:#b00400;fill-opacity:1"><path
         inkscape:connector-curvature="0"
         id="path4077"
         style="fill:#b00400;fill-opacity:1;fill-rule:nonzero;stroke:#000000;stroke-width:0.47999999;stroke-linecap:butt;stroke-linejoin:miter;stroke-miterlimit:4.0999999;stroke-dasharray:none;stroke-opacity:1"
         d="m 78.207,66.664 c 0,3.313 -2.687,6 -6,6 -3.316,0 -6,-2.687 -6,-6 0,-3.312 2.684,-6 6,-6 3.313,0 6,2.688 6,6 z" /></g><path
       inkscape:connector-curvature="0"
       id="path4079"
       style="fill:#ffffff;fill-opacity:1;fill-rule:nonzero;stroke:none"
       d="m 69.066,4.498 c -0.07,-0.285 -0.082,-0.344 -0.664,-0.344 -0.113,0 -0.195,0 -0.195,-0.137 0,-0.09 0.059,-0.09 0.195,-0.09 l 2.426,0 c 1.512,0 2.953,1.543 2.953,3.133 0,1.031 -0.617,1.856 -1.719,1.856 l -2.445,0 c -0.14,0 -0.219,0 -0.219,-0.137 0,-0.094 0.059,-0.094 0.207,-0.094 0.09,0 0.227,-0.008 0.309,-0.008 0.125,-0.023 0.16,-0.035 0.16,-0.129 0,-0.023 0,-0.043 -0.023,-0.136 L 69.066,4.498 Z m 1.579,3.914 c 0.07,0.254 0.082,0.273 0.402,0.273 l 0.777,0 c 0.707,0 1.317,-0.387 1.317,-1.347 0,-0.356 -0.137,-1.559 -0.77,-2.36 -0.203,-0.273 -0.777,-0.824 -1.68,-0.824 l -0.984,0 c -0.07,0.012 -0.09,0.023 -0.09,0.082 0,0.023 0,0.035 0.031,0.16 l 0.997,4.016 z" /><path
       inkscape:connector-curvature="0"
       id="path4081"
       style="fill:#ffffff;fill-opacity:1;fill-rule:nonzero;stroke:none"
       d="m 76.523,3.759 -0.171,0 C 76.344,3.646 76.285,3.349 76.215,3.302 76.184,3.267 75.793,3.267 75.711,3.267 l -0.938,0 c 0.539,0.469 0.723,0.617 1.02,0.86 0.379,0.296 0.73,0.617 0.73,1.097 0,0.617 -0.535,0.996 -1.187,0.996 -0.629,0 -1.066,-0.445 -1.066,-0.914 0,-0.254 0.218,-0.289 0.277,-0.289 0.113,0 0.262,0.094 0.262,0.278 0,0.089 -0.036,0.273 -0.297,0.273 0.16,0.355 0.504,0.469 0.742,0.469 0.516,0 0.777,-0.403 0.777,-0.813 0,-0.445 -0.32,-0.789 -0.48,-0.972 L 74.328,3.029 C 74.27,2.982 74.27,2.97 74.27,2.834 l 2.105,0 0.148,0.925 z" /><g
       transform="matrix(1,0,0,-1,0,72.900002)"
       id="g4083"><path
         inkscape:connector-curvature="0"
         id="path4085"
         style="fill:none;stroke:#000000;stroke-width:0.63999999;stroke-linecap:butt;stroke-linejoin:miter;stroke-miterlimit:4.00344801;stroke-dasharray:none;stroke-opacity:1"
         d="m 78.207,66.664 16,0" /></g><path
       inkscape:connector-curvature="0"
       id="path4087"
       style="fill:#000000;fill-opacity:1;fill-rule:evenodd;stroke:none"
       d="M 87.363,9.076 95.055,6.248 87.363,3.42 c 1.231,1.668 1.223,3.953 0,5.656 z" /><g
       transform="matrix(1,0,0,-1,0,72.900002)"
       id="g4089"
       style="fill:#b00400;fill-opacity:1"><path
         inkscape:connector-curvature="0"
         id="path4091"
         style="fill:#b00400;fill-opacity:1;fill-rule:nonzero;stroke:#000000;stroke-width:0.47999999;stroke-linecap:butt;stroke-linejoin:miter;stroke-miterlimit:4.0999999;stroke-dasharray:none;stroke-opacity:1"
         d="m 106.207,66.664 c 0,3.313 -2.687,6 -6,6 -3.316,0 -6,-2.687 -6,-6 0,-3.312 2.684,-6 6,-6 3.313,0 6,2.688 6,6 z" /></g><path
       inkscape:connector-curvature="0"
       id="path4093"
       style="fill:#ffffff;fill-opacity:1;fill-rule:nonzero;stroke:none"
       d="M 96.973,4.603 C 96.906,4.314 96.895,4.259 96.309,4.259 c -0.114,0 -0.192,0 -0.192,-0.136 0,-0.094 0.055,-0.094 0.192,-0.094 l 2.425,0 c 1.512,0 2.954,1.547 2.954,3.137 0,1.027 -0.618,1.851 -1.715,1.851 l -2.45,0 c -0.136,0 -0.218,0 -0.218,-0.137 0,-0.089 0.058,-0.089 0.207,-0.089 0.09,0 0.23,-0.012 0.308,-0.012 0.125,-0.024 0.16,-0.035 0.16,-0.125 0,-0.024 0,-0.047 -0.023,-0.141 l -0.984,-3.91 z m 1.582,3.91 c 0.066,0.254 0.078,0.278 0.398,0.278 l 0.777,0 c 0.711,0 1.317,-0.391 1.317,-1.352 0,-0.355 -0.137,-1.555 -0.766,-2.355 -0.207,-0.278 -0.777,-0.825 -1.683,-0.825 l -0.985,0 c -0.066,0.012 -0.09,0.024 -0.09,0.079 0,0.023 0,0.035 0.036,0.16 l 0.996,4.015 z" /><path
       inkscape:connector-curvature="0"
       id="path4095"
       style="fill:#ffffff;fill-opacity:1;fill-rule:nonzero;stroke:none"
       d="m 103.254,4.642 c 0.402,0 0.687,-0.277 0.687,-0.824 0,-0.629 -0.379,-0.824 -0.664,-0.824 -0.207,0 -0.664,0.054 -0.871,0.367 0.242,0 0.297,0.168 0.297,0.285 0,0.16 -0.125,0.274 -0.285,0.274 -0.137,0 -0.285,-0.09 -0.285,-0.297 0,-0.481 0.527,-0.789 1.144,-0.789 0.711,0 1.203,0.48 1.203,0.984 0,0.398 -0.324,0.801 -0.882,0.914 0.527,0.195 0.718,0.574 0.718,0.895 0,0.398 -0.457,0.695 -1.027,0.695 -0.562,0 -0.996,-0.274 -0.996,-0.688 0,-0.168 0.113,-0.261 0.262,-0.261 0.16,0 0.265,0.113 0.265,0.254 0,0.148 -0.105,0.261 -0.265,0.273 0.183,0.215 0.527,0.273 0.722,0.273 0.231,0 0.551,-0.113 0.551,-0.546 0,-0.219 -0.07,-0.461 -0.207,-0.61 -0.16,-0.195 -0.309,-0.203 -0.562,-0.226 -0.125,-0.012 -0.137,-0.012 -0.161,-0.012 -0.011,0 -0.054,-0.012 -0.054,-0.07 0,-0.067 0.043,-0.067 0.136,-0.067 l 0.274,0 z" /><g
       transform="matrix(1,0,0,-1,0,72.900002)"
       id="g4097"><path
         inkscape:connector-curvature="0"
         id="path4099"
         style="fill:none;stroke:#000000;stroke-width:0.63999999;stroke-linecap:butt;stroke-linejoin:miter;stroke-miterlimit:4.00344801;stroke-dasharray:none;stroke-opacity:1"
         d="m 106.207,66.664 16,0" /></g><path
       inkscape:connector-curvature="0"
       id="path4101"
       style="fill:#000000;fill-opacity:1;fill-rule:evenodd;stroke:none"
       d="m 115.363,9.076 7.692,-2.828 -7.692,-2.828 c 1.231,1.668 1.223,3.953 0,5.656 z" /><g
       transform="matrix(1,0,0,-1,0,72.900002)"
       id="g4103"
       style="fill:#b00400;fill-opacity:1"><path
         inkscape:connector-curvature="0"
         id="path4105"
         style="fill:#b00400;fill-opacity:1;fill-rule:nonzero;stroke:#000000;stroke-width:0.47999999;stroke-linecap:butt;stroke-linejoin:miter;stroke-miterlimit:4.0999999;stroke-dasharray:none;stroke-opacity:1"
         d="m 134.207,66.664 c 0,3.313 -2.687,6 -6,6 -3.316,0 -6,-2.687 -6,-6 0,-3.312 2.684,-6 6,-6 3.313,0 6,2.688 6,6 z" /></g><path
       inkscape:connector-curvature="0"
       id="path4107"
       style="fill:#ffffff;fill-opacity:1;fill-rule:nonzero;stroke:none"
       d="m 124.883,4.498 c -0.071,-0.285 -0.082,-0.344 -0.664,-0.344 -0.117,0 -0.196,0 -0.196,-0.137 0,-0.09 0.055,-0.09 0.196,-0.09 l 2.426,0 c 1.507,0 2.949,1.543 2.949,3.133 0,1.031 -0.617,1.856 -1.715,1.856 l -2.449,0 c -0.137,0 -0.219,0 -0.219,-0.137 0,-0.094 0.059,-0.094 0.207,-0.094 0.094,0 0.23,-0.008 0.309,-0.008 0.128,-0.023 0.16,-0.035 0.16,-0.129 0,-0.023 0,-0.043 -0.024,-0.136 l -0.98,-3.914 z m 1.578,3.914 c 0.066,0.254 0.078,0.273 0.398,0.273 l 0.778,0 c 0.711,0 1.316,-0.387 1.316,-1.347 0,-0.356 -0.137,-1.559 -0.765,-2.36 -0.208,-0.273 -0.778,-0.824 -1.684,-0.824 l -0.981,0 c -0.07,0.012 -0.093,0.023 -0.093,0.082 0,0.023 0,0.035 0.035,0.16 l 0.996,4.016 z" /><path
       inkscape:connector-curvature="0"
       id="path4109"
       style="fill:#ffffff;fill-opacity:1;fill-rule:nonzero;stroke:none"
       d="m 132.465,3.67 0,0.183 -0.57,0 0,2.274 c 0,0.105 0,0.148 -0.106,0.148 -0.066,0 -0.09,0 -0.137,-0.078 l -1.691,-2.344 0,-0.183 1.508,0 0,-0.415 c 0,-0.183 0,-0.238 -0.422,-0.238 l -0.137,0 0,-0.183 c 0.262,0.011 0.582,0.023 0.766,0.023 0.195,0 0.515,-0.012 0.777,-0.023 l 0,0.183 -0.137,0 c -0.421,0 -0.421,0.055 -0.421,0.238 l 0,0.415 0.57,0 z m -0.961,2.046 0,-1.863 -1.348,0 1.348,1.863 z" /><g
       transform="matrix(1,0,0,-1,0,72.900002)"
       id="g4111"><path
         inkscape:connector-curvature="0"
         id="path4113"
         style="fill:none;stroke:#000000;stroke-width:0.63999999;stroke-linecap:butt;stroke-linejoin:miter;stroke-miterlimit:4.00344801;stroke-dasharray:none;stroke-opacity:1"
         d="m 134.207,66.664 16,0" /></g><path
       inkscape:connector-curvature="0"
       id="path4115"
       style="fill:#000000;fill-opacity:1;fill-rule:evenodd;stroke:none"
       d="m 143.363,9.076 7.692,-2.828 -7.692,-2.828 c 1.231,1.668 1.223,3.953 0,5.656 z" /><g
       transform="matrix(1,0,0,-1,0,72.900002)"
       id="g4117"
       style="fill:#b00400;fill-opacity:1"><path
         inkscape:connector-curvature="0"
         id="path4119"
         style="fill:#b00400;fill-opacity:1;fill-rule:nonzero;stroke:#000000;stroke-width:0.47999999;stroke-linecap:butt;stroke-linejoin:miter;stroke-miterlimit:4.0999999;stroke-dasharray:none;stroke-opacity:1"
         d="m 162.207,66.664 c 0,3.313 -2.687,6 -6,6 -3.316,0 -6,-2.687 -6,-6 0,-3.312 2.684,-6 6,-6 3.313,0 6,2.688 6,6 z" /></g><path
       inkscape:connector-curvature="0"
       id="path4121"
       style="fill:#ffffff;fill-opacity:1;fill-rule:nonzero;stroke:none"
       d="m 152.992,4.603 c -0.07,-0.289 -0.082,-0.344 -0.664,-0.344 -0.117,0 -0.195,0 -0.195,-0.136 0,-0.094 0.058,-0.094 0.195,-0.094 l 2.426,0 c 1.508,0 2.949,1.547 2.949,3.137 0,1.027 -0.617,1.851 -1.715,1.851 l -2.449,0 c -0.137,0 -0.215,0 -0.215,-0.137 0,-0.089 0.055,-0.089 0.203,-0.089 0.094,0 0.231,-0.012 0.309,-0.012 0.129,-0.024 0.16,-0.035 0.16,-0.125 0,-0.024 0,-0.047 -0.019,-0.141 l -0.985,-3.91 z m 1.578,3.91 c 0.067,0.254 0.078,0.278 0.399,0.278 l 0.781,0 c 0.707,0 1.312,-0.391 1.312,-1.352 0,-0.355 -0.136,-1.555 -0.765,-2.355 -0.207,-0.278 -0.777,-0.825 -1.68,-0.825 l -0.984,0 c -0.071,0.012 -0.094,0.024 -0.094,0.079 0,0.023 0,0.035 0.035,0.16 l 0.996,4.015 z" /><path
       inkscape:connector-curvature="0"
       id="path4123"
       style="fill:#ffffff;fill-opacity:1;fill-rule:nonzero;stroke:none"
       d="m 158.664,5.787 c 0.266,-0.071 0.414,-0.071 0.492,-0.071 0.676,0 1.074,0.457 1.074,0.539 0,0.055 -0.031,0.067 -0.054,0.067 -0.012,0 -0.024,0 -0.047,-0.012 -0.125,-0.043 -0.391,-0.148 -0.766,-0.148 -0.148,0 -0.414,0.011 -0.746,0.136 -0.055,0.024 -0.066,0.024 -0.066,0.024 -0.071,0 -0.071,-0.055 -0.071,-0.137 l 0,-1.5 c 0,-0.09 0,-0.148 0.082,-0.148 0.043,0 0.055,0 0.102,0.07 0.219,0.273 0.539,0.32 0.711,0.32 0.309,0 0.445,-0.242 0.469,-0.285 0.09,-0.172 0.125,-0.367 0.125,-0.664 0,-0.148 0,-0.449 -0.16,-0.676 -0.125,-0.183 -0.344,-0.308 -0.594,-0.308 -0.332,0 -0.676,0.183 -0.801,0.527 0.191,-0.012 0.297,0.113 0.297,0.25 0,0.219 -0.195,0.25 -0.266,0.25 0,0 -0.25,0 -0.25,-0.273 0,-0.457 0.422,-0.914 1.032,-0.914 0.652,0 1.222,0.48 1.222,1.132 0,0.571 -0.433,1.098 -1.062,1.098 -0.231,0 -0.492,-0.047 -0.723,-0.242 l 0,0.965 z" /><g
       transform="matrix(1,0,0,-1,0,72.900002)"
       id="g4125"><path
         inkscape:connector-curvature="0"
         id="path4127"
         style="fill:none;stroke:#000000;stroke-width:0.40000001;stroke-linecap:butt;stroke-linejoin:miter;stroke-miterlimit:4;stroke-dasharray:none;stroke-opacity:1"
         d="m 47.98,9.621 c 0,0 1.887,-6.113 0,-8 -1.882,-1.883 -6.105,-1.879 -8,0 -1.914,1.906 -0.054,8.106 -0.054,8.106" /></g><path
       inkscape:connector-curvature="0"
       id="path4129"
       style="fill:#000000;fill-opacity:1;fill-rule:evenodd;stroke:none"
       d="m 40.398,67.779 -0.312,-5.113 -3.074,4.097 c 1.218,-0.437 2.586,-0.019 3.386,1.016 z" /><g
       transform="matrix(1,0,0,-1,0,72.900002)"
       id="g4131"><path
         inkscape:connector-curvature="0"
         id="path4133"
         style="fill:none;stroke:#000000;stroke-width:0.40000001;stroke-linecap:butt;stroke-linejoin:miter;stroke-miterlimit:4;stroke-dasharray:none;stroke-opacity:1"
         d="m 75.965,9.824 c 0,0 1.883,-6.113 0,-8 -1.887,-1.886 -6.11,-1.879 -8,0 C 66.047,3.727 67.91,9.93 67.91,9.93" /></g><path
       inkscape:connector-curvature="0"
       id="path4135"
       style="fill:#000000;fill-opacity:1;fill-rule:evenodd;stroke:none"
       d="m 68.379,67.58 -0.313,-5.114 -3.074,4.094 c 1.219,-0.433 2.586,-0.019 3.387,1.02 z" /><g
       transform="matrix(1,0,0,-1,0,72.900002)"
       id="g4137"><path
         inkscape:connector-curvature="0"
         id="path4139"
         style="fill:none;stroke:#000000;stroke-width:0.40000001;stroke-linecap:butt;stroke-linejoin:miter;stroke-miterlimit:4;stroke-dasharray:none;stroke-opacity:1"
         d="m 103.945,9.723 c 0,0 1.883,-6.114 0,-8 -1.886,-1.887 -6.109,-1.879 -8,0 -1.918,1.902 -0.054,8.105 -0.054,8.105" /></g><path
       inkscape:connector-curvature="0"
       id="path4141"
       style="fill:#000000;fill-opacity:1;fill-rule:evenodd;stroke:none"
       d="m 96.359,67.677 -0.308,-5.109 -3.078,4.094 c 1.222,-0.434 2.586,-0.02 3.386,1.015 z" /><g
       transform="matrix(1,0,0,-1,0,72.900002)"
       id="g4143"><path
         inkscape:connector-curvature="0"
         id="path4145"
         style="fill:none;stroke:#000000;stroke-width:0.40000001;stroke-linecap:butt;stroke-linejoin:miter;stroke-miterlimit:4;stroke-dasharray:none;stroke-opacity:1"
         d="m 131.824,9.723 c 0,0 1.887,-6.114 0,-8 -1.886,-1.887 -6.109,-1.879 -8,0 -1.918,1.902 -0.054,8.105 -0.054,8.105" /></g><path
       inkscape:connector-curvature="0"
       id="path4147"
       style="fill:#000000;fill-opacity:1;fill-rule:evenodd;stroke:none"
       d="m 124.238,67.677 -0.308,-5.109 -3.075,4.094 c 1.219,-0.434 2.586,-0.02 3.383,1.015 z" /><g
       transform="matrix(1,0,0,-1,0,72.900002)"
       id="g4149"><path
         inkscape:connector-curvature="0"
         id="path4151"
         style="fill:none;stroke:#000000;stroke-width:0.40000001;stroke-linecap:butt;stroke-linejoin:miter;stroke-miterlimit:4;stroke-dasharray:none;stroke-opacity:1"
         d="m 159.906,9.723 c 0,0 1.887,-6.114 0,-8 -1.886,-1.887 -6.109,-1.879 -8,0 -1.918,1.902 -0.054,8.105 -0.054,8.105" /></g><path
       inkscape:connector-curvature="0"
       id="path4153"
       style="fill:#000000;fill-opacity:1;fill-rule:evenodd;stroke:none"
       d="m 152.32,67.677 -0.308,-5.109 -3.074,4.094 c 1.218,-0.434 2.585,-0.02 3.382,1.015 z" /><g
       transform="matrix(1,0,0,-1,0,72.900002)"
       id="g4155"
       style="fill:#ffff47;fill-opacity:0.64999998"><path
         inkscape:connector-curvature="0"
         id="path4157"
         style="fill:#ffff47;fill-opacity:0.64999998;fill-rule:nonzero;stroke:#000000;stroke-width:0.47999999;stroke-linecap:butt;stroke-linejoin:miter;stroke-miterlimit:4.0999999;stroke-dasharray:none;stroke-opacity:1"
         d="m 26.207,14.664 c 0,3.313 -2.687,6 -6,6 -3.316,0 -6,-2.687 -6,-6 0,-3.312 2.684,-6 6,-6 3.313,0 6,2.688 6,6 z" /></g><path
       inkscape:connector-curvature="0"
       id="path4159"
       style="fill:#000000;fill-opacity:1;fill-rule:nonzero;stroke:none"
       d="m 19.746,61.213 c 0.063,0.285 0.086,0.359 0.723,0.359 0.187,0 0.25,0 0.25,0.152 0,0.098 -0.086,0.098 -0.11,0.098 -0.238,0 -0.828,-0.024 -1.062,-0.024 -0.238,0 -0.813,0.024 -1.063,0.024 -0.05,0 -0.152,0 -0.152,-0.16 0,-0.09 0.063,-0.09 0.227,-0.09 0.324,0 0.55,0 0.55,-0.149 0,-0.039 0,-0.062 -0.027,-0.125 l -1.074,-4.3 c -0.074,-0.301 -0.086,-0.375 -0.727,-0.375 -0.187,0 -0.25,0 -0.25,-0.16 0,-0.09 0.09,-0.09 0.114,-0.09 0.238,0 0.812,0.027 1.05,0.027 0.239,0 0.825,-0.027 1.063,-0.027 0.062,0 0.164,0 0.164,0.152 0,0.098 -0.063,0.098 -0.238,0.098 -0.153,0 -0.188,0 -0.34,0.011 -0.172,0.016 -0.199,0.051 -0.199,0.141 0,0.063 0.011,0.125 0.027,0.188 l 1.074,4.25 z" /><path
       inkscape:connector-curvature="0"
       id="path4161"
       style="fill:#000000;fill-opacity:1;fill-rule:nonzero;stroke:none"
       d="m 23.137,56.955 c 0,0.609 -0.075,1.062 -0.325,1.449 -0.175,0.25 -0.527,0.473 -0.964,0.473 -1.297,0 -1.297,-1.524 -1.297,-1.922 0,-0.403 0,-1.891 1.297,-1.891 1.289,0 1.289,1.488 1.289,1.891 z m -1.289,-1.727 c -0.262,0 -0.598,0.149 -0.711,0.602 -0.075,0.324 -0.075,0.785 -0.075,1.199 0,0.41 0,0.836 0.075,1.137 0.125,0.437 0.476,0.562 0.711,0.562 0.3,0 0.59,-0.187 0.687,-0.512 0.09,-0.3 0.102,-0.699 0.102,-1.187 0,-0.414 0,-0.824 -0.075,-1.176 -0.113,-0.512 -0.488,-0.625 -0.714,-0.625 z" /><g
       transform="matrix(1,0,0,-1,0,72.900002)"
       id="g4163"
       style="fill:#ffff48;fill-opacity:0.6474359"><path
         inkscape:connector-curvature="0"
         id="path4165"
         style="fill:#ffff48;fill-opacity:0.6474359;fill-rule:nonzero;stroke:#000000;stroke-width:0.47999999;stroke-linecap:butt;stroke-linejoin:miter;stroke-miterlimit:4.0999999;stroke-dasharray:none;stroke-opacity:1"
         d="m 186.207,14.664 c 0,3.313 -2.687,6 -6,6 -3.316,0 -6,-2.687 -6,-6 0,-3.312 2.684,-6 6,-6 3.313,0 6,2.688 6,6 z" /></g><path
       inkscape:connector-curvature="0"
       id="path4167"
       style="fill:#000000;fill-opacity:1;fill-rule:nonzero;stroke:none"
       d="m 179.875,60.97 c 0.063,0.285 0.086,0.36 0.723,0.36 0.187,0 0.25,0 0.25,0.152 0,0.098 -0.086,0.098 -0.11,0.098 -0.238,0 -0.828,-0.024 -1.062,-0.024 -0.238,0 -0.813,0.024 -1.063,0.024 -0.051,0 -0.152,0 -0.152,-0.16 0,-0.09 0.062,-0.09 0.227,-0.09 0.324,0 0.55,0 0.55,-0.149 0,-0.039 0,-0.062 -0.027,-0.125 l -1.074,-4.301 c -0.075,-0.3 -0.086,-0.375 -0.727,-0.375 -0.187,0 -0.25,0 -0.25,-0.16 0,-0.09 0.09,-0.09 0.113,-0.09 0.239,0 0.813,0.028 1.051,0.028 0.238,0 0.824,-0.028 1.063,-0.028 0.062,0 0.164,0 0.164,0.153 0,0.097 -0.063,0.097 -0.239,0.097 -0.152,0 -0.187,0 -0.339,0.012 -0.172,0.016 -0.2,0.051 -0.2,0.141 0,0.062 0.012,0.125 0.028,0.187 l 1.074,4.25 z" /><path
       inkscape:connector-curvature="0"
       id="path4169"
       style="fill:#000000;fill-opacity:1;fill-rule:nonzero;stroke:none"
       d="m 181.227,56.763 c 0,0.45 0.039,0.86 0.25,1.211 0.187,0.301 0.488,0.5 0.851,0.5 0.16,0 0.387,-0.039 0.5,-0.187 -0.137,-0.012 -0.262,-0.114 -0.262,-0.274 0,-0.14 0.098,-0.265 0.262,-0.265 0.176,0 0.274,0.113 0.274,0.277 0,0.324 -0.239,0.613 -0.786,0.613 -0.8,0 -1.625,-0.738 -1.625,-1.937 0,-1.438 0.672,-1.875 1.297,-1.875 0.676,0 1.266,0.523 1.266,1.25 0,0.711 -0.563,1.234 -1.215,1.234 -0.449,0 -0.687,-0.297 -0.812,-0.547 z m 0.761,-1.765 c -0.285,0 -0.5,0.164 -0.625,0.414 -0.074,0.164 -0.125,0.449 -0.125,0.773 0,0.551 0.328,0.965 0.778,0.965 0.25,0 0.425,-0.102 0.562,-0.301 0.137,-0.211 0.137,-0.449 0.137,-0.773 0,-0.313 0,-0.551 -0.149,-0.778 -0.125,-0.187 -0.312,-0.3 -0.578,-0.3 z" /><g
       transform="matrix(1,0,0,-1,0,72.900002)"
       id="g4171"><path
         inkscape:connector-curvature="0"
         id="path4173"
         style="fill:#666666;fill-opacity:1;fill-rule:nonzero;stroke:#000000;stroke-width:0.40000001;stroke-linecap:butt;stroke-linejoin:miter;stroke-miterlimit:4.0999999;stroke-dasharray:none;stroke-opacity:1"
         d="m 6.379,40.664 c 0,1.707 -1.383,3.086 -3.086,3.086 -1.707,0 -3.086,-1.379 -3.086,-3.086 0,-1.703 1.379,-3.086 3.086,-3.086 1.703,0 3.086,1.383 3.086,3.086 z" /></g><g
       transform="matrix(1,0,0,-1,0,72.900002)"
       id="g4175"><path
         inkscape:connector-curvature="0"
         id="path4177"
         style="fill:none;stroke:#000000;stroke-width:0.63999999;stroke-linecap:butt;stroke-linejoin:miter;stroke-miterlimit:4;stroke-dasharray:none;stroke-opacity:1"
         d="m 176.207,40.664 17.828,0" /></g><path
       inkscape:connector-curvature="0"
       id="path4179"
       style="fill:#000000;fill-opacity:1;fill-rule:evenodd;stroke:none"
       d="m 187.191,35.076 7.692,-2.828 -7.692,-2.828 c 1.231,1.668 1.223,3.953 0,5.656 z" /><g
       transform="matrix(1,0,0,-1,0,72.900002)"
       id="g4181"><path
         inkscape:connector-curvature="0"
         id="path4183"
         style="fill:none;stroke:#000000;stroke-width:0.63999999;stroke-linecap:butt;stroke-linejoin:miter;stroke-miterlimit:4;stroke-dasharray:none;stroke-opacity:1"
         d="m 183.477,19.695 11.961,18.383" /></g><path
       inkscape:connector-curvature="0"
       id="path4185"
       style="fill:#000000;fill-opacity:1;fill-rule:evenodd;stroke:none"
       d="m 194.086,42.107 1.824,-7.992 -6.566,4.906 c 2.07,-0.121 3.98,1.133 4.742,3.086 z" /><g
       transform="matrix(1,0,0,-1,0,72.900002)"
       id="g4187"><path
         inkscape:connector-curvature="0"
         id="path4189"
         style="fill:#666666;fill-opacity:1;fill-rule:nonzero;stroke:#000000;stroke-width:0.40000001;stroke-linecap:butt;stroke-linejoin:miter;stroke-miterlimit:4.0999999;stroke-dasharray:none;stroke-opacity:1"
         d="m 200.207,40.664 c 0,1.707 -1.383,3.086 -3.086,3.086 -1.707,0 -3.086,-1.379 -3.086,-3.086 0,-1.703 1.379,-3.086 3.086,-3.086 1.703,0 3.086,1.383 3.086,3.086 z" /></g><g
       transform="matrix(1,0,0,-1,0,72.900002)"
       id="g4191"><path
         inkscape:connector-curvature="0"
         id="path4193"
         style="fill:none;stroke:#000000;stroke-width:0.40000001;stroke-linecap:butt;stroke-linejoin:miter;stroke-miterlimit:4;stroke-dasharray:none;stroke-opacity:1"
         d="m 23.828,9.789 c 0,0 1.883,-6.113 0,-8 -1.887,-1.887 -6.109,-1.879 -8,0 -1.918,1.902 -0.055,8.106 -0.055,8.106" /></g><path
       inkscape:connector-curvature="0"
       id="path4195"
       style="fill:#000000;fill-opacity:1;fill-rule:evenodd;stroke:none"
       d="m 16.242,67.611 -0.308,-5.109 -3.079,4.093 c 1.223,-0.433 2.586,-0.019 3.387,1.016 z" /><g
       transform="matrix(1,0,0,-1,0,72.900002)"
       id="g4197"><path
         inkscape:connector-curvature="0"
         id="path4199"
         style="fill:none;stroke:#000000;stroke-width:0.40000001;stroke-linecap:butt;stroke-linejoin:miter;stroke-miterlimit:4;stroke-dasharray:none;stroke-opacity:1"
         d="m 184.031,9.738 c 0,0 1.883,-6.117 0,-8 -1.886,-1.886 -6.109,-1.879 -8,0 -1.918,1.903 -0.058,8.102 -0.058,8.102" /></g><path
       inkscape:connector-curvature="0"
       id="path4201"
       style="fill:#000000;fill-opacity:1;fill-rule:evenodd;stroke:none"
       d="m 176.445,67.666 -0.312,-5.114 -3.074,4.098 c 1.218,-0.437 2.586,-0.023 3.386,1.016 z" /><text
       xml:space="preserve"
       style="font-style:normal;font-variant:normal;font-weight:normal;font-stretch:normal;font-size:8px;line-height:125%;font-family:Arial;-inkscape-font-specification:Arial;letter-spacing:0px;word-spacing:0px;fill:#000000;fill-opacity:1;stroke:none;stroke-width:1px;stroke-linecap:butt;stroke-linejoin:miter;stroke-opacity:1"
       x="2.0845039"
       y="-30.89567"
       id="text5631"
       sodipodi:linespacing="125%"
       transform="scale(1,-1)"><tspan
         sodipodi:role="line"
         id="tspan5633"
         x="2.0845039"
         y="-30.89567"
         style="font-style:normal;font-variant:normal;font-weight:normal;font-stretch:normal;font-size:6px;font-family:'Times New Roman';-inkscape-font-specification:'Times New Roman, ';fill:#ffffff;fill-opacity:1">s</tspan></text>
<text
       xml:space="preserve"
       style="font-style:normal;font-variant:normal;font-weight:normal;font-stretch:normal;font-size:8px;line-height:125%;font-family:Arial;-inkscape-font-specification:Arial;letter-spacing:0px;word-spacing:0px;fill:#000000;fill-opacity:1;stroke:none;stroke-width:1px;stroke-linecap:butt;stroke-linejoin:miter;stroke-opacity:1"
       x="195.76309"
       y="-30.894205"
       id="text5631-9"
       sodipodi:linespacing="125%"
       transform="scale(1,-1)"><tspan
         sodipodi:role="line"
         id="tspan5633-8"
         x="195.76309"
         y="-30.894205"
         style="font-style:normal;font-variant:normal;font-weight:normal;font-stretch:normal;font-size:6px;font-family:'Times New Roman';-inkscape-font-specification:'Times New Roman, ';fill:#ffffff;fill-opacity:1">e</tspan></text>
</g></svg>